<?xml version="1.0" encoding="utf-8"?>
<!-- Generator: Adobe Illustrator 16.0.0, SVG Export Plug-In . SVG Version: 6.00 Build 0)  -->
<!DOCTYPE svg PUBLIC "-//W3C//DTD SVG 1.1//EN" "http://www.w3.org/Graphics/SVG/1.1/DTD/svg11.dtd">
<svg version="1.1" id="Layer_1" xmlns="http://www.w3.org/2000/svg" xmlns:xlink="http://www.w3.org/1999/xlink" x="0px" y="0px"
	 width="80px" height="80px" viewBox="0 0 80 80" enable-background="new 0 0 80 80" xml:space="preserve">
<g>
	<path fill="#FDCA6E" d="M46.345,60.579c-0.004-0.038-0.01-0.074-0.012-0.116c-0.02-0.21-0.063-0.421-0.131-0.628
		c-0.412-1.193-1.531-1.998-2.791-2.002c-0.277,0-0.57,0.035-0.873,0.1c-0.086,0.019-0.17,0.041-0.258,0.063
		c0.039-0.216,0.066-0.422,0.072-0.622c0.018-0.473-0.008-2.071-1.127-2.899c-0.648-0.482-1.434-0.773-2.266-0.84
		c-0.098-0.008-0.211-0.03-0.322-0.015c-0.1,0.002-0.195,0.012-0.283,0.032c-0.242,0.059-0.367,0.198-0.428,0.304
		c-0.086,0.148-0.102,0.327-0.051,0.502c0.064,0.21,0.197,0.348,0.318,0.454c0.119,0.108,0.176,0.334,0.234,0.571l0.133,0.486
		c0.066,0.242,0.096,0.507,0.127,0.787l0.021,0.216c0.025,0.197,0.033,0.37,0.031,0.531c-0.012,0.762-0.605,1.077-1.1,1.205
		c-0.408,0.106-0.893,0.157-1.373,0.142c-0.07-0.003-0.146-0.009-0.248-0.02c-0.123-0.009-0.248-0.024-0.369-0.04l-0.141-0.018
		c-0.107-0.013-0.213-0.025-0.322-0.045c-0.074-0.011-0.146-0.021-0.221-0.029l-0.139-0.021c-0.041-0.005-0.08-0.012-0.121-0.02
		l-0.094-0.016c0.006-0.141,0.008-0.279,0.012-0.419c0-0.086,0-0.17,0-0.254c0-4.479-0.648-7.896-1.928-10.153
		c-2.801-4.947-8.408-7.783-15.386-7.783c-4.686,0-11.021,1.074-14.584,6.19C0.353,49.636,0,55.047,0,57.971
		c0,0.308,0.008,0.616,0.022,0.928c0.014,0.315,0.033,0.604,0.058,0.88c0.027,0.277,0.061,0.554,0.102,0.82
		c0.042,0.265,0.091,0.524,0.146,0.773c0.047,0.21,0.1,0.42,0.158,0.63l0.298,0.737c0.046,0.099,0.094,0.196,0.144,0.3l0.061,0.125
		c0.041,0.086,0.085,0.173,0.129,0.257c0.063,0.127,0.13,0.254,0.199,0.382c0.069,0.125,0.141,0.252,0.215,0.374
		c0.072,0.123,0.149,0.245,0.226,0.365c0.078,0.12,0.161,0.237,0.24,0.351c0.083,0.113,0.171,0.227,0.262,0.338
		c0.088,0.108,0.179,0.213,0.273,0.314c0.097,0.104,0.196,0.205,0.295,0.299c0.102,0.099,0.204,0.19,0.314,0.281
		c0.104,0.087,0.215,0.171,0.328,0.255c0.113,0.082,0.231,0.16,0.347,0.231c0.116,0.073,0.237,0.146,0.361,0.213
		s0.249,0.13,0.378,0.19c0.127,0.061,0.257,0.117,0.392,0.172c0.132,0.053,0.262,0.103,0.4,0.149
		c0.135,0.048,0.27,0.091,0.411,0.134c0.138,0.042,0.279,0.08,0.422,0.119c0.143,0.036,0.287,0.069,0.433,0.104
		c0.146,0.031,0.292,0.062,0.439,0.089c0.149,0.029,0.301,0.057,0.45,0.082c0.151,0.024,0.303,0.046,0.458,0.068
		c0.155,0.022,0.309,0.043,0.463,0.063c0.158,0.018,0.317,0.037,0.472,0.053c0.16,0.018,0.323,0.032,0.483,0.047
		c0.163,0.015,0.325,0.028,0.488,0.04c0.154,0.014,0.309,0.023,0.463,0.034l0.036,0.001c0.168,0.011,0.333,0.021,0.5,0.028
		c0.171,0.012,0.342,0.021,0.513,0.025c0.174,0.009,0.347,0.017,0.516,0.021c0.177,0.007,0.351,0.012,0.527,0.016
		c0.133,0.006,0.265,0.009,0.4,0.013l11.402,0.006l0.273-0.009c2.041-0.059,4.148-0.118,6.227-0.377
		c0.318-0.04,0.633-0.087,0.949-0.142l0,0c0.656-0.11,1.248-0.241,1.805-0.396c0.395-0.112,0.816-0.245,1.246-0.398
		c0.453-0.162,0.908-0.34,1.348-0.531c0.566-0.242,1.008-0.565,1.436-0.879c0.248-0.183,0.494-0.374,0.738-0.566
		c0.254-0.198,0.506-0.396,0.766-0.584c0.164-0.119,0.33-0.235,0.492-0.352c0.145-0.099,0.285-0.196,0.426-0.299
		c0.469-0.338,0.891-0.725,1.316-1.111c0.357-0.326,0.684-0.612,1.055-0.775c0.313-0.139,0.713-0.212,1.176-0.214
		c0.213,0,0.412,0.025,0.574,0.074c0.428,0.127,0.781,0.296,1.053,0.511c0.086,0.078,0.26,0.244,0.52,0.244
		c0.254,0,0.473-0.155,0.566-0.408c0.133-0.332,0.189-0.732,0.184-1.228C46.368,60.751,46.356,60.664,46.345,60.579z M45.308,61.102
		c-0.281-0.158-0.604-0.29-0.959-0.396c-0.264-0.078-0.557-0.117-0.895-0.117l0,0c-0.592,0.003-1.143,0.108-1.586,0.307
		c-0.514,0.226-0.928,0.581-1.355,0.974c-0.404,0.369-0.785,0.718-1.205,1.021c-0.135,0.098-0.271,0.194-0.41,0.29
		c-0.172,0.121-0.342,0.24-0.51,0.362c-0.268,0.194-0.533,0.401-0.795,0.607c-0.236,0.186-0.471,0.368-0.715,0.545
		c-0.393,0.292-0.771,0.565-1.225,0.761c-0.424,0.184-0.854,0.353-1.285,0.506c-0.408,0.146-0.805,0.273-1.178,0.377
		c-0.51,0.142-1.051,0.262-1.652,0.365c-0.291,0.002-0.586,0.002-0.879,0.001c-0.146,0-0.295-0.001-0.441-0.004
		c-0.221-0.001-0.441-0.006-0.664-0.01c-0.133-0.005-0.266-0.008-0.4-0.011c-0.24-0.006-0.48-0.015-0.721-0.024
		c-0.117-0.004-0.238-0.008-0.357-0.012c-0.26-0.013-0.516-0.025-0.775-0.037c-0.105-0.007-0.209-0.013-0.314-0.02
		c-0.279-0.015-0.555-0.032-0.832-0.05c-0.09-0.007-0.178-0.012-0.266-0.019c-0.299-0.021-0.594-0.043-0.891-0.068
		c-0.072-0.006-0.146-0.012-0.219-0.018c-0.314-0.024-0.631-0.055-0.948-0.083c-0.053-0.004-0.108-0.009-0.16-0.016
		c-0.339-0.031-0.676-0.064-1.015-0.1c-0.03-0.003-0.063-0.006-0.097-0.01c-0.361-0.039-0.72-0.078-1.081-0.12
		c-0.011,0-0.022-0.001-0.03-0.004c-5.665-0.656-11.146-1.728-15.084-2.599c-0.014-0.004-0.028-0.007-0.042-0.008
		c-0.243-0.056-0.477-0.108-0.709-0.161c-0.03-0.006-0.061-0.013-0.091-0.02c-0.212-0.049-0.419-0.096-0.618-0.143
		c-0.042-0.01-0.083-0.02-0.124-0.027c-0.185-0.043-0.367-0.086-0.541-0.127c-0.05-0.011-0.096-0.022-0.146-0.033
		c-0.16-0.039-0.317-0.076-0.466-0.112c-0.058-0.015-0.116-0.026-0.174-0.04c-0.135-0.034-0.267-0.066-0.396-0.098
		c-0.058-0.015-0.116-0.027-0.171-0.041c-0.121-0.03-0.237-0.059-0.35-0.085c-0.058-0.015-0.116-0.029-0.174-0.045
		c-0.1-0.025-0.199-0.05-0.292-0.072c-0.055-0.015-0.11-0.027-0.163-0.041c-0.036-0.009-0.068-0.018-0.102-0.026
		c-0.039-0.077-0.075-0.153-0.11-0.232c-0.03-0.061-0.058-0.122-0.083-0.178c-0.05-0.111-0.083-0.201-0.104-0.284
		c-0.052-0.195-0.102-0.389-0.146-0.585c-0.053-0.226-0.097-0.462-0.133-0.703c-0.039-0.249-0.069-0.504-0.094-0.761
		c-0.027-0.275-0.044-0.551-0.055-0.823c-0.011-0.295-0.022-0.591-0.022-0.885c0-2.8,0.331-7.968,2.54-11.14
		c3.302-4.743,9.281-5.739,13.716-5.739c6.584,0,11.856,2.641,14.464,7.247c1.188,2.097,1.793,5.338,1.793,9.632
		c0,0.078,0,0.157-0.004,0.237c0,0.14-0.004,0.278-0.008,0.41l-0.006,0.078c-0.006,0.098-0.014,0.221,0.004,0.357
		c0.029,0.353,0.254,0.494,0.381,0.548c0.104,0.045,0.197,0.053,0.275,0.06l0.115,0.014c0.039,0.004,0.074,0.007,0.133,0.016
		l0.066,0.011c0.055,0.009,0.109,0.018,0.16,0.024l0.141,0.021c0.066,0.008,0.131,0.018,0.191,0.025
		c0.119,0.021,0.242,0.036,0.363,0.052l0.135,0.016c0.135,0.019,0.273,0.034,0.438,0.049c0.094,0.008,0.191,0.017,0.285,0.02
		c0.57,0.017,1.164-0.044,1.668-0.175c1.17-0.306,1.875-1.133,1.893-2.211c0.002-0.209-0.012-0.428-0.039-0.672l-0.021-0.206
		c-0.033-0.312-0.068-0.632-0.16-0.956l-0.125-0.46c-0.035-0.147-0.076-0.311-0.141-0.474c0.473,0.098,0.908,0.29,1.283,0.569
		c0.557,0.412,0.727,1.308,0.697,2.01c-0.008,0.277-0.063,0.581-0.168,0.932c-0.008,0.025-0.016,0.047-0.023,0.072l-0.035,0.096
		c-0.184,0.29-0.104,0.561,0.031,0.719l0.182,0.19h0.24c0.158,0,0.287-0.064,0.342-0.093l0.039-0.015
		c0.059-0.023,0.119-0.046,0.182-0.069c0.229-0.083,0.459-0.15,0.682-0.199c0.229-0.049,0.445-0.075,0.646-0.075
		c0.928,0.001,1.576,0.671,1.789,1.286c0.041,0.122,0.068,0.244,0.076,0.358c0.004,0.066,0.014,0.13,0.021,0.195
		c0.008,0.042,0.016,0.084,0.016,0.127C45.313,60.942,45.313,61.024,45.308,61.102z"/>
	<path fill="#FDCA6E" d="M24.222,56.675c-0.827,0-1.497,0.672-1.497,1.497c0,0.826,0.67,1.497,1.497,1.497
		c0.824,0,1.498-0.671,1.498-1.497C25.72,57.347,25.046,56.675,24.222,56.675z M24.222,59.382c-0.667,0-1.211-0.544-1.211-1.21
		c0-0.277,0.1-0.529,0.257-0.733c-0.044,0.096-0.072,0.199-0.072,0.311c0,0.411,0.331,0.744,0.742,0.744
		c0.411,0,0.745-0.333,0.745-0.744s-0.334-0.743-0.745-0.743c-0.016,0-0.03,0.007-0.043,0.008c0.104-0.028,0.212-0.051,0.328-0.051
		c0.668,0,1.207,0.543,1.207,1.209S24.89,59.382,24.222,59.382z"/>
</g>
<g>
	<path fill="#FDCA6E" d="M15.932,26.871c-0.586-0.208-1.279-0.091-1.893-0.114c-0.589-0.022-1.173-0.029-1.75-0.018
		c-0.578,0.011-1.182,0.018-1.817,0.018l-0.034-3.856c0-0.206-0.067-0.378-0.204-0.52c-0.135-0.142-0.301-0.243-0.493-0.306
		c-0.192-0.062-0.391-0.081-0.594-0.06c-0.205,0.025-0.381,0.087-0.527,0.188c-0.125,0.091-0.218,0.187-0.28,0.288
		c-0.064,0.103-0.106,0.2-0.128,0.289c-0.035,0.113-0.05,0.221-0.05,0.323l0.015,3.653c-0.261,0-0.492-0.003-0.695-0.01
		c-0.204-0.004-0.404-0.008-0.596-0.008c-0.193,0-0.392,0.004-0.596,0.008c-0.203,0.007-0.423,0.01-0.66,0.01H5.545
		c-0.25,0.011-0.495,0.016-0.741,0.016c-0.242,0-0.476,0.046-0.704,0.135c-0.17,0.069-0.306,0.194-0.408,0.374
		c-0.102,0.183-0.151,0.358-0.151,0.525c0,0.274,0.118,0.518,0.354,0.733c0.195,0.157,0.426,0.247,0.698,0.262
		c0.272,0.018,0.525,0.021,0.764,0.009c0.058,0,0.115-0.004,0.17-0.009c0.056-0.007,0.113-0.009,0.171-0.009h9.513
		c0.012,0,0.065,0,0.163,0c0.097,0,0.207-0.007,0.332-0.025c0.124-0.016,0.253-0.048,0.391-0.093
		c0.136-0.045,0.248-0.115,0.338-0.203c0.069-0.08,0.123-0.19,0.162-0.333c0.04-0.142,0.06-0.273,0.06-0.397
		c0-0.238-0.08-0.436-0.239-0.595C16.268,27.019,16.104,26.929,15.932,26.871z"/>
	<path fill="#FDCA6E" d="M0.278,18.79c0.136,0.203,0.325,0.331,0.568,0.381c0.244,0.051,0.462,0.077,0.655,0.077
		c1.395,0,2.786,0,4.181,0c1.239,0,2.48-0.051,3.719-0.051c0.564,0,1.131,0.007,1.696,0c0.458-0.005,1.094-0.228,1.474,0.133
		c0.367,0.346,0.225,1.054,0.233,1.506c0.018,0.819-0.001,1.64,0.115,2.453c0.022,0.182,0.039,0.376,0.051,0.587
		c0.011,0.209,0.042,0.407,0.092,0.593c0.05,0.188,0.13,0.353,0.238,0.495c0.106,0.141,0.273,0.24,0.5,0.295
		c0.193,0.056,0.379,0.055,0.562-0.007c0.179-0.062,0.333-0.172,0.458-0.331c0.113-0.159,0.188-0.325,0.221-0.502
		c0.034-0.175,0.052-0.353,0.052-0.535c0-0.463,0.001-0.921,0.007-1.37c0.014-0.972,0.05-1.947,0.026-2.921
		c-0.018-0.722,0.077-1.51-0.272-2.174c-0.067-0.129-0.164-0.228-0.288-0.296c-0.093-0.058-0.186-0.091-0.282-0.103
		c-0.095-0.011-0.19-0.027-0.282-0.051c-1.471-0.166-2.954-0.084-4.433-0.11c-0.338-0.005-0.661-0.009-0.96-0.009
		c-2.018,0-4.035,0.055-6.053,0.055c-0.269,0.003-0.541-0.005-0.811,0.006c-0.141,0.005-0.319,0.036-0.534,0.092
		c-0.08,0.023-0.153,0.047-0.221,0.07c-0.068,0.021-0.136,0.044-0.204,0.066c-0.329,0.149-0.539,0.379-0.63,0.696
		c-0.044,0.161-0.057,0.323-0.033,0.494C0.147,18.5,0.2,18.652,0.278,18.79z"/>
	<path fill="#FDCA6E" d="M24.012,27.318c-0.16-0.193-0.349-0.304-0.57-0.331c-0.219-0.029-0.426-0.043-0.621-0.043l-2.547,0.033
		H20.24c-0.057,0-0.099-0.02-0.119-0.058c-0.023-0.041-0.036-0.18-0.036-0.416c0-0.785-0.024-1.568,0-2.346
		c0,0,0.132-0.05,0.136-0.051c0.237-0.087,0.668,0.004,0.915,0.005c0.528,0.003,1.049-0.018,1.576-0.055
		c0.163-0.012,0.308-0.046,0.432-0.103c0.193-0.091,0.333-0.234,0.417-0.435c0.32-0.744,0.271-1.587,0.217-2.379
		c-0.061-0.9-0.055-1.806-0.055-2.709c0-0.088-0.005-0.193-0.017-0.313c-0.009-0.119-0.027-0.234-0.049-0.348
		c-0.025-0.114-0.058-0.215-0.104-0.306c-0.147-0.271-0.333-0.447-0.561-0.527c-0.227-0.077-0.435-0.119-0.628-0.119h-0.254
		l-1.614,0.018h-0.238c-0.078,0-0.167-0.004-0.264-0.009c-0.096-0.005-0.188-0.009-0.281-0.009c-0.125,0-0.23,0.003-0.321,0.009
		s-0.166,0.015-0.221,0.025h-0.186c-0.068,0.012-0.134,0.018-0.196,0.018s-0.139,0.011-0.229,0.034
		c-0.102,0.022-0.194,0.064-0.273,0.126c-0.08,0.065-0.16,0.133-0.237,0.214c-0.079,0.067-0.134,0.167-0.162,0.299
		c-0.028,0.13-0.049,0.228-0.06,0.295c0,0.126,0.02,0.236,0.06,0.333c0.04,0.095,0.092,0.195,0.162,0.296
		c0.124,0.137,0.279,0.22,0.467,0.254c0.186,0.036,0.32,0.052,0.4,0.052l2.225-0.016c0.225,0,0.368,0.049,0.424,0.152
		c0.057,0.103,0.086,0.306,0.086,0.611c0,0.114,0,0.262,0,0.441c0,0.184,0,0.364,0,0.546c0,0.179,0.002,0.343,0.006,0.484
		c0.007,0.142,0.009,0.224,0.009,0.246c0.012,0.102,0.021,0.204,0.028,0.305c0.005,0.103-0.005,0.206-0.028,0.307
		c-0.01,0.126-0.073,0.204-0.187,0.238c-0.114,0.033-0.203,0.051-0.271,0.051h-0.05c-0.35,0-0.699,0.008-1.047,0.006
		c-0.463,0-1.281-0.151-1.704,0.042c-0.541,0.252-0.548,0.987-0.535,1.492c0.019,0.774,0.028,1.544,0.025,2.321
		c-0.001,0.733-0.094,1.539,0.185,2.238c0.069,0.181,0.167,0.325,0.296,0.435c0.133,0.106,0.276,0.192,0.435,0.254
		c0.16,0.062,0.316,0.1,0.476,0.118c1.014,0.109,2.088-0.011,3.109-0.026c0.215-0.012,0.445-0.03,0.688-0.06
		c0.244-0.027,0.411-0.07,0.502-0.127c0.168-0.102,0.306-0.194,0.407-0.281c0.104-0.085,0.147-0.263,0.137-0.533
		c-0.013-0.296-0.028-0.48-0.051-0.553C24.056,27.389,24.035,27.341,24.012,27.318z"/>
	<path fill="#FDCA6E" d="M29.94,17.04c-0.068-0.228-0.17-0.409-0.307-0.545c-0.146-0.169-0.345-0.245-0.594-0.219
		c-0.237,0.021-0.415,0.102-0.535,0.244c-0.119,0.144-0.199,0.312-0.238,0.509c-0.04,0.2-0.059,0.404-0.059,0.614
		c0,0.208,0,0.393,0,0.552v3.618h-1.104v-2.446c0-0.25,0-0.519,0-0.808c0-0.289-0.013-0.565-0.033-0.832
		c-0.024-0.265-0.067-0.513-0.129-0.738c-0.062-0.228-0.157-0.402-0.281-0.528c-0.159-0.181-0.366-0.244-0.628-0.185
		c-0.193,0.044-0.343,0.131-0.449,0.262c-0.109,0.131-0.19,0.28-0.247,0.451c-0.058,0.168-0.091,0.347-0.102,0.535
		c-0.013,0.186-0.018,0.358-0.018,0.517v9.888c0,0.259,0.018,0.527,0.053,0.798c0.033,0.271,0.147,0.503,0.339,0.697
		c0.091,0.091,0.189,0.162,0.297,0.22c0.108,0.055,0.225,0.085,0.349,0.085c0.26,0,0.458-0.095,0.595-0.29
		c0.112-0.158,0.189-0.376,0.228-0.652c0.039-0.28,0.049-0.547,0.026-0.808v-4.112h1.104v4.01c0,0.157,0.007,3.315,0.025,3.525
		c0.018,0.211,0.057,0.411,0.119,0.604c0.063,0.192,0.153,0.357,0.273,0.493c0.119,0.135,0.273,0.203,0.468,0.203
		c0.147,0,0.316-0.055,0.51-0.17c0.247-0.168,0.395-0.414,0.441-0.731c0.082-0.578,0.039-1.194,0.044-1.777
		c0.015-1.765,0.005-3.533,0.005-5.298c0-1.51,0-3.017,0-4.527c0-0.331-0.021-0.67,0-1.001c0.012-0.181,0.018-0.4,0.018-0.655
		c0-0.253-0.011-0.513-0.035-0.772C30.053,17.509,30.008,17.267,29.94,17.04z"/>
	<path fill="#FDCA6E" d="M32.166,22.238c0.191,0.589,0.516,1.042,0.967,1.358c0.125,0.116,0.256,0.208,0.391,0.281
		c0.137,0.073,0.285,0.15,0.441,0.229c0.284,0.137,0.579,0.228,0.886,0.271c0.078,0,0.154,0.005,0.228,0.018
		c0.074,0.011,0.157,0.017,0.247,0.017c0.07,0.023,0.14,0.033,0.212,0.033c0.075,0,0.145,0,0.213,0
		c0.058,0.024,0.11,0.035,0.16,0.035c0.054,0,0.101,0,0.146,0h0.307c0.056-0.022,0.11-0.035,0.16-0.035c0.051,0,0.094,0,0.128,0
		c0.057,0,0.113,0,0.171,0c0.057,0,0.112-0.009,0.168-0.033c0.159-0.035,0.314-0.066,0.468-0.095
		c0.153-0.027,0.302-0.063,0.449-0.108c0.159-0.036,0.312-0.085,0.459-0.153c0.147-0.069,0.295-0.147,0.442-0.238
		c0.192-0.137,0.364-0.279,0.518-0.426c0.153-0.146,0.292-0.317,0.416-0.509c0.216-0.374,0.357-0.781,0.425-1.223
		c0.034-0.067,0.057-0.148,0.067-0.239s0.029-0.182,0.052-0.27c0-0.069,0.004-0.146,0.015-0.232c0.011-0.083,0.018-0.16,0.018-0.228
		c0.023-0.147,0.029-0.283,0.018-0.408c-0.013-0.123-0.029-0.25-0.051-0.374c-0.023-0.124-0.047-0.25-0.067-0.382
		c-0.023-0.129-0.052-0.258-0.085-0.382c-0.023-0.147-0.059-0.283-0.11-0.408c-0.053-0.124-0.112-0.243-0.179-0.357
		c-0.126-0.214-0.288-0.425-0.491-0.629c-0.083-0.078-0.163-0.151-0.25-0.22c-0.083-0.067-0.16-0.117-0.228-0.152
		c-0.192-0.113-0.384-0.217-0.578-0.305c-0.112-0.058-0.224-0.107-0.333-0.146c-0.105-0.04-0.222-0.077-0.346-0.11
		c-0.035-0.023-0.077-0.042-0.128-0.059c-0.052-0.018-0.104-0.026-0.163-0.026c-0.056-0.022-0.11-0.035-0.16-0.035
		c-0.051,0-0.099-0.01-0.145-0.033c-0.091-0.021-0.189-0.039-0.298-0.05c-0.108-0.012-0.206-0.018-0.296-0.018
		c-0.192-0.035-0.392-0.035-0.595,0c-0.295,0-0.575,0.025-0.842,0.076c-0.265,0.051-0.512,0.134-0.738,0.248
		c-0.261,0.09-0.49,0.203-0.688,0.34c-0.199,0.135-0.388,0.299-0.57,0.49c-0.181,0.16-0.336,0.344-0.468,0.553
		c-0.129,0.209-0.252,0.433-0.364,0.671c-0.091,0.25-0.162,0.5-0.213,0.756c-0.05,0.255-0.075,0.53-0.075,0.823
		c0,0.283,0.018,0.56,0.059,0.833C31.976,21.66,32.053,21.944,32.166,22.238z M34.136,20.25c0.046-0.168,0.094-0.326,0.144-0.468
		c0.053-0.141,0.123-0.269,0.214-0.382c0.091-0.124,0.191-0.222,0.306-0.296c0.112-0.073,0.23-0.14,0.357-0.196
		c0.124-0.056,0.254-0.097,0.389-0.118c0.136-0.023,0.277-0.034,0.424-0.034c0.307,0,0.605,0.034,0.9,0.102
		c0.057,0.023,0.111,0.044,0.161,0.068c0.051,0.021,0.1,0.05,0.145,0.085c0.093,0.033,0.181,0.077,0.272,0.135
		c0.101,0.067,0.171,0.142,0.204,0.221c0.047,0.022,0.078,0.055,0.102,0.094c0.022,0.039,0.051,0.076,0.084,0.11
		c0.034,0.057,0.072,0.123,0.11,0.196c0.041,0.072,0.072,0.149,0.095,0.229c0.057,0.192,0.092,0.374,0.11,0.543
		c0.018,0.169,0.001,0.35-0.043,0.543c-0.035,0.125-0.067,0.243-0.103,0.357c-0.032,0.113-0.09,0.23-0.17,0.357
		c-0.147,0.238-0.328,0.407-0.543,0.51c-0.08,0.035-0.154,0.068-0.229,0.103c-0.073,0.033-0.151,0.049-0.23,0.049
		c-0.091,0.022-0.175,0.033-0.254,0.033c-0.08,0-0.164,0.012-0.256,0.036c-0.156,0-0.32-0.013-0.484-0.036
		c-0.163-0.021-0.324-0.061-0.483-0.117c-0.441-0.171-0.775-0.43-1.002-0.782c-0.09-0.171-0.165-0.392-0.221-0.662
		C34.102,20.692,34.102,20.464,34.136,20.25z"/>
	<path fill="#FDCA6E" d="M40.745,26.535c-0.113-0.078-0.242-0.141-0.39-0.186c-0.091-0.023-0.176-0.041-0.255-0.05
		c-0.08-0.013-0.166-0.018-0.255-0.018c-0.091-0.024-0.187-0.035-0.288-0.035c-0.103,0-0.21,0-0.324,0h-6.421
		c-0.046,0-0.091,0-0.137,0c-0.044,0-0.107,0.011-0.185,0.035c-0.058,0.023-0.122,0.043-0.189,0.058
		c-0.068,0.018-0.135,0.039-0.203,0.061c-0.147,0.035-0.257,0.102-0.325,0.204c-0.147,0.169-0.219,0.361-0.219,0.576
		c0,0.148,0.02,0.271,0.059,0.367c0.04,0.096,0.092,0.185,0.16,0.261c0.092,0.07,0.188,0.121,0.289,0.156
		c0.058,0.022,0.11,0.042,0.164,0.058c0.05,0.018,0.104,0.037,0.16,0.061c0.113,0.023,0.221,0.038,0.325,0.051
		c0.101,0.01,0.207,0.017,0.321,0.017h1.783c0.16,0,0.318,0,0.477,0c0.158,0,0.339,0.011,0.543,0.034h1.189
		c0.217-0.023,0.422-0.034,0.62-0.034s0.394,0,0.586,0h1.614c0.057,0,0.113,0,0.169,0c0.058,0,0.12-0.011,0.188-0.035
		c0.057,0,0.112-0.004,0.168-0.015c0.057-0.013,0.114-0.029,0.171-0.051c0.136-0.047,0.259-0.144,0.374-0.291
		c0.125-0.145,0.187-0.316,0.187-0.511c0-0.135-0.031-0.259-0.092-0.373C40.946,26.763,40.858,26.649,40.745,26.535z"/>
	<path fill="#FDCA6E" d="M44.092,18.518c-0.023-0.125-0.033-0.257-0.033-0.4c0-0.141,0-4.946,0-5.071
		c0-0.124-0.018-0.248-0.051-0.374c-0.035-0.126-0.08-0.249-0.137-0.375c-0.066-0.168-0.176-0.311-0.322-0.424
		c-0.09-0.057-0.182-0.095-0.273-0.119c-0.092-0.023-0.182-0.034-0.27-0.034c-0.094,0-0.176,0-0.246,0
		c-0.074,0-0.154,0.011-0.23,0.034c-0.09,0.035-0.215,0.106-0.375,0.221c-0.17,0.191-0.271,0.441-0.305,0.749
		c-0.092,0.838-0.033,1.721-0.043,2.565c-0.027,2.154-0.021,4.305-0.014,6.458c0.006,1.804,0.012,3.605,0.02,5.407
		c0,0.417,0.002,0.833,0.004,1.249v0.187c0,0.035,0.006,0.08,0.016,0.137c0.012,0.055,0.029,0.112,0.051,0.168
		c0,0.082,0.01,0.153,0.033,0.22c0.025,0.068,0.053,0.144,0.086,0.224c0.08,0.179,0.164,0.298,0.254,0.357
		c0.092,0.101,0.232,0.174,0.426,0.221c0.146,0.021,0.287,0.021,0.426,0c0.137-0.025,0.254-0.076,0.357-0.153
		c0.088-0.035,0.156-0.074,0.201-0.12c0.047-0.044,0.09-0.085,0.139-0.119c0.023-0.057,0.043-0.104,0.066-0.145
		s0.045-0.088,0.07-0.145c0.076-0.111,0.117-0.259,0.117-0.441c0.023-0.091,0.033-0.186,0.033-0.288c0-0.103,0-0.209,0-0.323
		c0-0.158-0.006-0.325-0.016-0.502c-0.012-0.174-0.008-0.354,0.016-0.535c0-0.868,0.033-1.733,0.033-2.598c0-0.228,0-0.472,0-0.731
		v-2.752c0-0.261,0-0.511,0-0.747c0-0.238-0.01-0.472-0.033-0.699V18.518z"/>
	<path fill="#FDCA6E" d="M61.998,23.02c-0.158-0.126-0.338-0.21-0.535-0.255c-0.197-0.046-0.395-0.073-0.586-0.084
		c-0.236-0.012-0.521-0.018-0.852-0.018c-0.326,0-0.67,0-1.037,0c-0.361,0-0.725,0.004-1.084,0.007
		c-0.363,0.007-0.703,0.011-1.02,0.011c0-0.195-0.004-0.392-0.01-0.596c-0.004-0.204-0.02-0.385-0.041-0.545
		c0-0.009-0.004-0.02-0.01-0.025c-0.004-0.005-0.008-0.019-0.008-0.042h3.227c0.125,0,0.256-0.004,0.391-0.018
		c0.139-0.01,0.268-0.039,0.391-0.083c0.137-0.046,0.229-0.116,0.271-0.212c0.047-0.097,0.086-0.207,0.123-0.333
		c0.055-0.225,0.086-0.451,0.09-0.679c0.008-0.227,0.014-0.452,0.027-0.68c0-0.261,0.01-0.538,0.025-0.832
		c0.018-0.295,0.014-0.572-0.008-0.834c-0.012-0.226-0.059-0.442-0.135-0.653c-0.082-0.209-0.232-0.359-0.461-0.451
		c-0.191-0.088-0.402-0.145-0.629-0.168c-0.227-0.023-0.447-0.039-0.66-0.051c-0.104-0.011-0.203-0.018-0.299-0.018
		s-0.195,0-0.299,0c-0.283,0-0.5,0.002-0.652,0.008s-0.293,0.01-0.418,0.01c-0.123,0-0.262,0-0.414,0c-0.156,0-0.373,0-0.654,0
		h-3.227c-0.205,0-0.41-0.005-0.615-0.018c-0.201-0.011-0.4-0.004-0.594,0.018c-0.158,0.022-0.314,0.044-0.475,0.067
		c-0.158,0.022-0.318,0.063-0.477,0.119c-0.168,0.068-0.295,0.156-0.375,0.263c-0.078,0.106-0.135,0.253-0.17,0.433
		c-0.055,0.283-0.084,0.587-0.084,0.909c0,0.324,0,0.632,0,0.927c0,0.191,0.01,0.389,0.027,0.594
		c0.016,0.204,0.029,0.407,0.041,0.611c0,0.126,0.021,0.274,0.061,0.449c0.041,0.177,0.115,0.311,0.229,0.401
		c0,0.022,0.018,0.033,0.049,0.033c0.127,0.091,0.275,0.135,0.443,0.135c0.17,0,0.33,0.005,0.477,0.018
		c0.113,0.011,0.223,0.019,0.332,0.024c0.107,0.007,0.219,0.009,0.332,0.009h1.781c-0.01,0.045-0.018,0.12-0.018,0.22v0.988
		c-0.281,0-0.525-0.004-0.729-0.011c-0.203-0.002-0.4-0.007-0.586-0.007c-0.189,0-0.381,0-0.576,0c-0.199,0-0.436,0.006-0.707,0.018
		c-0.262,0.011-0.516,0.014-0.764,0.007c-0.25-0.006-0.492,0.031-0.73,0.11c-0.184,0.057-0.326,0.167-0.434,0.332
		c-0.109,0.164-0.162,0.326-0.162,0.484c0,0.228,0.131,0.436,0.393,0.629c0.191,0.158,0.426,0.244,0.703,0.255
		c0.277,0.01,0.547,0.01,0.807,0l9.053-0.018c0.016,0,0.068,0,0.164,0s0.213-0.01,0.348-0.025c0.135-0.018,0.275-0.047,0.416-0.085
		c0.143-0.041,0.26-0.104,0.35-0.196c0.068-0.055,0.121-0.146,0.162-0.27c0.037-0.127,0.059-0.244,0.059-0.358
		C62.236,23.319,62.156,23.143,61.998,23.02z M53.283,19.604c-0.08,0.011-0.146,0.016-0.203,0.016c-0.059,0-0.113-0.001-0.172-0.007
		c-0.055-0.005-0.094-0.019-0.119-0.042c-0.021-0.023-0.037-0.061-0.041-0.11c-0.006-0.05-0.01-0.105-0.01-0.163v-0.151
		c0-0.067,0-0.158,0-0.273c0-0.112,0.012-0.207,0.035-0.288c0.021-0.103,0.059-0.156,0.1-0.162c0.049-0.005,0.121-0.008,0.223-0.008
		c0.25-0.011,0.492-0.02,0.73-0.025s0.475,0.003,0.713,0.025c0.035,0,0.17,0,0.408,0s0.496,0,0.771,0c0.281,0,0.537,0,0.775,0
		s0.373,0,0.41,0h1.543c0.104-0.011,0.227-0.015,0.375-0.009c0.146,0.007,0.258,0.055,0.338,0.146
		c0.068,0.091,0.105,0.215,0.105,0.374c0,0.157-0.008,0.282-0.018,0.372c-0.025,0.103-0.045,0.178-0.063,0.23
		c-0.016,0.051-0.088,0.082-0.211,0.092c-0.104,0.023-0.225,0.033-0.367,0.033c-0.141,0-0.271-0.003-0.398-0.015
		c-0.146-0.011-0.299-0.023-0.457-0.034H53.283z"/>
	<path fill="#FDCA6E" d="M61.336,27.521v-1.154c0-0.262-0.129-0.465-0.383-0.614c-0.256-0.146-0.615-0.22-1.08-0.22l-8.512,0.018
		c-0.01,0-0.096,0.014-0.252,0.043c-0.158,0.029-0.309,0.123-0.443,0.281c-0.201,0.26-0.27,0.599-0.201,1.018
		c0.01,0.125,0.055,0.226,0.135,0.306c0.078,0.079,0.162,0.143,0.254,0.188c0.092,0.046,0.172,0.08,0.246,0.101
		c0.074,0.023,0.117,0.034,0.127,0.034h5.678h0.373c0.125,0,0.26-0.002,0.406-0.008c0.148-0.004,0.316-0.008,0.51-0.008
		c0.418,0,0.705,0.005,0.857,0.017c0.152,0.012,0.246,0.025,0.281,0.035c0.01,0.045,0.02,0.125,0.025,0.237
		c0.006,0.113,0.012,0.233,0.018,0.357c0.004,0.124,0.012,0.246,0.016,0.364c0.004,0.121,0.01,0.201,0.01,0.247
		c0,0.894,0,1.787,0.006,2.681c0.004,0.634-0.064,1.321,0.018,1.949c0.018,0.131,0.049,0.253,0.086,0.365
		c0.039,0.114,0.102,0.215,0.188,0.306c0.084,0.091,0.205,0.159,0.365,0.204c0.113,0.035,0.232,0.049,0.357,0.049
		c0.26,0,0.471-0.071,0.635-0.219c0.164-0.148,0.258-0.341,0.281-0.578c0.012-0.067,0.018-0.188,0.018-0.356
		c0-0.171,0-4.597,0-4.784c0-0.186-0.004-0.363-0.008-0.525C61.338,27.688,61.336,27.579,61.336,27.521z"/>
	<path fill="#FDCA6E" d="M65.447,22.341c0-0.012-0.035-0.018-0.102-0.018c-0.07,0-0.145,0.001-0.23,0.008
		c-0.086,0.005-0.166,0.014-0.236,0.025c-0.076,0.011-0.115,0.023-0.127,0.034c-0.16,0-0.318,0.014-0.477,0.043
		c-0.162,0.027-0.297,0.081-0.41,0.161c-0.189,0.136-0.287,0.299-0.287,0.493c0,0.124,0.018,0.263,0.049,0.417
		c0.035,0.153,0.104,0.281,0.207,0.382c0.09,0.102,0.227,0.178,0.404,0.229c0.182,0.051,0.354,0.077,0.514,0.077
		c0.088,0.024,0.174,0.036,0.252,0.042c0.08,0.006,0.16,0.009,0.238,0.009h8.697c0.104,0,0.197-0.003,0.283-0.009
		c0.086-0.006,0.166-0.019,0.244-0.042c0.125-0.044,0.238-0.147,0.342-0.306c0.102-0.125,0.166-0.284,0.195-0.476
		c0.029-0.193,0.014-0.369-0.043-0.527c-0.08-0.147-0.18-0.259-0.307-0.339c-0.123-0.079-0.27-0.147-0.441-0.203
		c-0.021,0-0.09,0-0.205,0c-0.111,0-0.23-0.008-0.354-0.018l-0.51-0.034v-2.906c-0.025-0.08-0.037-0.166-0.043-0.253
		c-0.008-0.092-0.012-0.171-0.012-0.239h0.75c0.215,0,0.426-0.042,0.639-0.128c0.209-0.085,0.352-0.229,0.432-0.432
		c0.023-0.058,0.043-0.122,0.066-0.189c0.023-0.068,0.035-0.127,0.035-0.187c0-0.147-0.02-0.282-0.051-0.407
		c-0.035-0.124-0.104-0.238-0.205-0.339c-0.078-0.08-0.174-0.144-0.289-0.188c-0.111-0.045-0.234-0.08-0.373-0.101
		c-0.123-0.023-0.248-0.047-0.371-0.07c-0.129-0.021-0.252-0.034-0.377-0.034h-8.357c-0.148,0.023-0.293,0.048-0.441,0.076
		c-0.146,0.029-0.283,0.066-0.406,0.11c-0.377,0.103-0.563,0.357-0.563,0.765c0,0.148,0.014,0.303,0.043,0.468
		c0.027,0.163,0.127,0.296,0.297,0.4c0.09,0.057,0.172,0.098,0.248,0.125c0.07,0.029,0.148,0.055,0.229,0.077
		c0.08,0,0.158,0.008,0.236,0.024c0.078,0.019,0.164,0.026,0.256,0.026h0.508c0.012,0.487,0.02,0.883,0.025,1.19
		c0.008,0.306,0.014,0.554,0.02,0.746c0.006,0.193,0.008,0.353,0.008,0.476c0,0.124,0,0.25,0,0.373V22.341z M67.461,19.918
		c0.004-0.13,0.008-0.256,0.008-0.382c0-0.181,0-0.333,0-0.458c0-0.126,0.111-0.188,0.34-0.188h2.922
		c0.113,0,0.193,0.036,0.238,0.11c0.045,0.075,0.068,0.154,0.068,0.247l0.051,2.498c0,0.044,0,0.099,0,0.162
		c0,0.062-0.01,0.123-0.025,0.178c-0.016,0.057-0.057,0.104-0.111,0.144c-0.057,0.041-0.141,0.061-0.252,0.061h-2.857
		c-0.092,0-0.16-0.02-0.211-0.061c-0.053-0.039-0.088-0.084-0.113-0.135c-0.021-0.051-0.031-0.105-0.031-0.162
		c0-0.055,0-0.104,0-0.135c-0.012-0.319-0.021-0.592-0.025-0.825c-0.006-0.232-0.01-0.433-0.01-0.603
		C67.451,20.198,67.455,20.049,67.461,19.918z"/>
	<path fill="#FDCA6E" d="M79.666,27.283c-0.076-0.068-0.162-0.127-0.254-0.177c-0.092-0.05-0.176-0.088-0.256-0.111
		c-0.869-0.251-1.797-0.172-2.691-0.135c-0.934,0.039-1.869,0-2.803,0c-0.473,0-0.889,0-1.25,0h-0.049v-1.445
		c-0.023-0.103-0.053-0.193-0.08-0.271c-0.027-0.08-0.068-0.159-0.127-0.239c-0.08-0.057-0.148-0.11-0.211-0.161
		c-0.064-0.051-0.141-0.088-0.23-0.11c-0.078-0.022-0.158-0.036-0.236-0.043c-0.08-0.005-0.17-0.008-0.273-0.008
		c-0.281,0-0.514,0.115-0.695,0.349c-0.182,0.231-0.27,0.472-0.27,0.72v1.208h-0.154c-0.127,0-0.279,0.004-0.461,0.008
		c-0.18,0.006-0.369,0.007-0.566,0.007c-0.199,0-0.395-0.001-0.586-0.007c-0.193-0.004-0.357-0.014-0.494-0.026v-0.102
		c0-0.157-0.004-0.28-0.008-0.366c-0.008-0.084-0.02-0.189-0.043-0.313v-0.646c0-0.103-0.02-0.193-0.063-0.271
		c-0.037-0.08-0.084-0.159-0.143-0.239c-0.102-0.124-0.23-0.215-0.389-0.271c-0.023,0-0.051-0.009-0.076-0.025
		c-0.029-0.018-0.072-0.026-0.129-0.026h-0.426c-0.076,0.022-0.15,0.047-0.211,0.076c-0.064,0.03-0.123,0.07-0.18,0.128
		c-0.146,0.066-0.248,0.157-0.305,0.271c-0.023,0.057-0.045,0.106-0.068,0.154c-0.021,0.044-0.033,0.095-0.033,0.153
		c-0.025,0.057-0.039,0.104-0.043,0.144c-0.006,0.041-0.01,0.087-0.01,0.144v1.189c-0.283,0.013-0.535,0.023-0.764,0.034
		c-0.191,0.014-0.377,0.018-0.553,0.018s-0.291,0-0.348,0c-0.271,0-0.508,0.052-0.715,0.153c-0.182,0.058-0.316,0.17-0.408,0.341
		c-0.098,0.204-0.15,0.373-0.15,0.511c0,0.304,0.117,0.577,0.355,0.813c0.184,0.137,0.414,0.204,0.697,0.204
		c0.363,0.022,0.719,0.029,1.07,0.017c0.352-0.011,0.701-0.017,1.053-0.017h8.121c1.563,0,3.127-0.008,4.689-0.008
		c0.146-0.006,0.301-0.037,0.459-0.093c0.057-0.023,0.107-0.056,0.152-0.104c0.045-0.044,0.096-0.078,0.152-0.101
		c0.148-0.182,0.221-0.408,0.221-0.68C79.887,27.657,79.814,27.442,79.666,27.283z"/>
</g>
</svg>
