<?xml version="1.0" encoding="utf-8"?>
<!-- Generator: Adobe Illustrator 16.0.0, SVG Export Plug-In . SVG Version: 6.00 Build 0)  -->
<!DOCTYPE svg PUBLIC "-//W3C//DTD SVG 1.1//EN" "http://www.w3.org/Graphics/SVG/1.1/DTD/svg11.dtd">
<svg version="1.1" id="Layer_1" xmlns="http://www.w3.org/2000/svg" xmlns:xlink="http://www.w3.org/1999/xlink" x="0px" y="0px"
	 width="80px" height="80px" viewBox="0 0 80 80" enable-background="new 0 0 80 80" xml:space="preserve">
<g>
	<g>
		<path fill="#F4C46F" d="M73.343,38.271c1.554-2.047,2.044-4.391,1.344-6.427c-0.7-2.046-2.523-3.594-5.002-4.26L52.976,24.89
			L45.7,10.242l-0.115-0.195c-1.437-2.196-3.542-3.461-5.781-3.461c-2.15,0-4.156,1.125-5.646,3.171L25.544,24.89L10.46,27.422
			l-0.208,0.047c-2.458,0.703-4.268,2.287-4.948,4.349c-0.693,2.057-0.192,4.417,1.354,6.453l11.271,11.604l-1.945,16.515
			l-0.013,0.156c-0.078,2.141,0.516,3.943,1.729,5.204c1.729,1.785,4.547,2.155,7.339,0.89l14.963-8.14l14.839,8.078l0.124,0.062
			c1.128,0.506,2.238,0.767,3.3,0.767c1.576,0,3.008-0.589,4.039-1.656c1.212-1.261,1.808-3.063,1.728-5.204l-1.962-16.671
			l11.125-11.433L73.343,38.271z"/>
		<path opacity="0.2" fill="none" d="M0,0v80h79.999V0H0z"/>
	</g>
	<path fill="#FFFFFF" d="M39.82,31.797c-0.203,0.693-0.5,1.25-0.899,1.662c-0.57,0.609-1.32,1.016-2.237,1.229
		c-0.578,0.125-1.588,0.219-3.028,0.281v3.115h5.476v16.047h4.68V30.865h-3.816C39.997,31.063,39.937,31.375,39.82,31.797z"/>
</g>
</svg>
