<?xml version="1.0" encoding="utf-8"?>
<!-- Generator: Adobe Illustrator 16.0.0, SVG Export Plug-In . SVG Version: 6.00 Build 0)  -->
<!DOCTYPE svg PUBLIC "-//W3C//DTD SVG 1.1//EN" "http://www.w3.org/Graphics/SVG/1.1/DTD/svg11.dtd">
<svg version="1.1" id="Layer_1" xmlns="http://www.w3.org/2000/svg" xmlns:xlink="http://www.w3.org/1999/xlink" x="0px" y="0px"
	 width="80px" height="80px" viewBox="0 0 80 80" enable-background="new 0 0 80 80" xml:space="preserve">
<g>
	<path opacity="0.2" fill="none" d="M0,0.283V80h79.717V0.283H0z"/>
	<path fill="#F4C46F" d="M73.084,38.429c1.549-2.04,2.037-4.383,1.339-6.415s-2.515-3.581-4.984-4.235l-16.649-2.686l-7.25-14.596
		l-0.114-0.195c-1.428-2.195-3.526-3.449-5.756-3.449c-2.146,0-4.146,1.121-5.626,3.153l-8.586,15.087l-15.027,2.522l-0.213,0.047
		c-2.45,0.701-4.253,2.281-4.93,4.328c-0.69,2.055-0.192,4.398,1.349,6.431l11.236,11.568l-1.946,16.457l-0.01,0.148
		c-0.081,2.141,0.514,3.931,1.726,5.192c1.715,1.782,4.528,2.141,7.31,0.88l14.911-8.112l14.787,8.05l0.124,0.063
		c1.124,0.506,2.229,0.771,3.288,0.771c1.569,0,2.997-0.584,4.02-1.65c1.212-1.262,1.812-3.052,1.729-5.192l-1.952-16.605
		L72.937,38.6L73.084,38.429z"/>
	<path fill="#FFFFFF" d="M44.335,41.737c0.555-0.21,1.09-0.607,1.599-1.199c0.81-0.942,1.219-2.086,1.219-3.457
		c0-1.923-0.68-3.464-2.034-4.608c-1.365-1.145-3.15-1.721-5.361-1.721c-1.191,0-2.201,0.14-3.021,0.428
		c-0.817,0.296-1.531,0.708-2.125,1.253c-0.794,0.763-1.383,1.604-1.757,2.507c-0.353,1.035-0.547,2.125-0.591,3.277h4.25
		c-0.019-1.137,0.223-2.047,0.729-2.732s1.292-1.028,2.367-1.028c0.937,0,1.658,0.28,2.18,0.833
		c0.514,0.553,0.771,1.277,0.771,2.165c0,1.362-0.503,2.273-1.516,2.717c-0.581,0.265-1.608,0.413-3.087,0.428v3.261
		c1.51,0,2.61,0.148,3.311,0.437c1.237,0.514,1.853,1.525,1.853,3.052c0,1.152-0.335,2.031-0.996,2.646
		c-0.664,0.615-1.443,0.919-2.341,0.919c-1.451,0-2.46-0.561-3.008-1.682c-0.298-0.607-0.451-1.37-0.451-2.297h-4.477
		c0.073,1.846,0.452,3.34,1.116,4.477c1.282,2.141,3.555,3.215,6.84,3.215c2.663,0,4.671-0.747,6.033-2.234
		c1.354-1.486,2.037-3.207,2.037-5.169c0-1.868-0.586-3.34-1.743-4.414C45.347,42.096,44.755,41.737,44.335,41.737z"/>
</g>
</svg>
