<?xml version="1.0" encoding="utf-8"?>
<!-- Generator: Adobe Illustrator 16.0.0, SVG Export Plug-In . SVG Version: 6.00 Build 0)  -->
<!DOCTYPE svg PUBLIC "-//W3C//DTD SVG 1.1//EN" "http://www.w3.org/Graphics/SVG/1.1/DTD/svg11.dtd">
<svg version="1.1" id="Layer_1" xmlns="http://www.w3.org/2000/svg" xmlns:xlink="http://www.w3.org/1999/xlink" x="0px" y="0px"
	 width="80px" height="80px" viewBox="0 0 80 80" enable-background="new 0 0 80 80" xml:space="preserve">
<g>
	<path fill="#F4C46F" d="M17.833,50.106l-1.93,16.402l-0.01,0.147c-0.08,2.135,0.512,3.92,1.718,5.17
		c1.713,1.777,4.513,2.143,7.287,0.885l14.863-8.096l14.738,8.019l0.124,0.069c1.118,0.497,2.223,0.753,3.278,0.753
		c1.561,0,2.989-0.582,4.009-1.646c1.205-1.25,1.795-3.043,1.718-5.17l-1.954-16.558l11.039-11.349l0.147-0.178
		c1.542-2.026,2.028-4.363,1.33-6.389c-0.694-2.026-2.505-3.571-4.971-4.223l-16.589-2.67l-7.234-14.547l-0.114-0.194
		c-1.423-2.181-3.514-3.431-5.744-3.431c-2.132,0-4.125,1.118-5.604,3.144l-8.549,15.036l-14.977,2.523L10.2,27.852
		c-2.445,0.699-4.244,2.274-4.922,4.324c-0.675,2.049-0.181,4.378,1.356,6.404L17.833,50.106z"/>
	<path opacity="0.2" fill="none" d="M0,0.574l0.039,79.449l79.45-0.031L79.449,0.543L0,0.574z"/>
	<path fill="#FFFFFF" d="M37.198,44.921c-2.417,1.708-3.959,3.33-4.616,4.867c-0.673,1.366-1.043,2.872-1.089,4.533l15.823,0.094
		l0.025-3.998l-10.088-0.062c0.292-0.474,0.644-0.894,1.068-1.25c0.419-0.357,1.198-0.939,2.344-1.739l1.822-1.28
		c1.547-1.079,2.651-2.05,3.327-2.935c1.029-1.319,1.553-2.833,1.563-4.549c0.011-2.228-0.703-4.029-2.143-5.387
		c-1.433-1.358-3.379-2.049-5.827-2.065c-3.095-0.015-5.252,1.126-6.479,3.423c-0.647,1.203-1.009,2.794-1.095,4.759l4.412,0.023
		c0.063-1.296,0.238-2.235,0.525-2.833c0.504-1.025,1.452-1.537,2.828-1.529c1.014,0.008,1.791,0.333,2.324,0.986
		c0.538,0.652,0.808,1.459,0.797,2.438c-0.005,1.203-0.483,2.305-1.434,3.314C40.665,42.375,39.304,43.438,37.198,44.921z"/>
</g>
</svg>
