<?xml version="1.0" encoding="utf-8"?>
<!-- Generator: Adobe Illustrator 16.0.0, SVG Export Plug-In . SVG Version: 6.00 Build 0)  -->
<!DOCTYPE svg PUBLIC "-//W3C//DTD SVG 1.1//EN" "http://www.w3.org/Graphics/SVG/1.1/DTD/svg11.dtd">
<svg version="1.1" id="Layer_1" xmlns="http://www.w3.org/2000/svg" xmlns:xlink="http://www.w3.org/1999/xlink" x="0px" y="0px"
	 width="80px" height="80px" viewBox="0 0 80 80" enable-background="new 0 0 80 80" xml:space="preserve">
<g>
	<path fill="#6D5CE8" d="M0.619,53.613l0.517,1.278c0.082,0.172,0.161,0.341,0.248,0.52l0.11,0.219
		c0.072,0.148,0.144,0.297,0.22,0.445c0.113,0.22,0.229,0.439,0.348,0.661c0.12,0.219,0.246,0.439,0.37,0.649
		c0.127,0.214,0.26,0.426,0.396,0.635c0.136,0.206,0.274,0.41,0.415,0.604c0.145,0.2,0.297,0.395,0.453,0.589
		c0.153,0.187,0.313,0.37,0.475,0.546c0.167,0.182,0.34,0.355,0.514,0.52c0.174,0.168,0.354,0.327,0.545,0.486
		c0.182,0.15,0.372,0.299,0.57,0.442c0.196,0.144,0.398,0.279,0.6,0.403c0.204,0.128,0.413,0.252,0.63,0.368
		c0.214,0.116,0.429,0.226,0.654,0.332c0.22,0.103,0.445,0.199,0.681,0.297c0.229,0.091,0.457,0.177,0.691,0.26
		c0.236,0.081,0.472,0.156,0.714,0.231c0.241,0.071,0.483,0.139,0.734,0.204c0.247,0.063,0.496,0.124,0.75,0.18
		c0.254,0.057,0.509,0.109,0.759,0.157c0.26,0.051,0.52,0.096,0.78,0.139c0.263,0.044,0.529,0.083,0.796,0.122
		c0.27,0.037,0.538,0.072,0.805,0.105c0.273,0.034,0.549,0.065,0.818,0.093c0.278,0.03,0.555,0.058,0.837,0.083
		s0.563,0.048,0.847,0.07c0.268,0.021,0.536,0.038,0.802,0.056l0.062,0.005c0.291,0.018,0.581,0.036,0.866,0.049
		c0.298,0.018,0.595,0.032,0.89,0.045c0.301,0.013,0.602,0.027,0.895,0.037c0.305,0.011,0.609,0.019,0.911,0.028
		c0.233,0.007,0.464,0.012,0.699,0.018l19.779,0.01l0.477-0.013c3.538-0.103,7.195-0.206,10.804-0.654
		c0.55-0.068,1.099-0.153,1.641-0.245l0.007-0.002c1.136-0.191,2.159-0.418,3.126-0.688c0.689-0.191,1.417-0.424,2.168-0.69
		c0.783-0.279,1.569-0.589,2.338-0.919c0.979-0.421,1.745-0.982,2.487-1.524c0.434-0.317,0.857-0.651,1.282-0.984
		c0.437-0.345,0.877-0.689,1.327-1.013c0.284-0.206,0.571-0.407,0.858-0.609c0.243-0.171,0.489-0.343,0.733-0.519
		c0.813-0.587,1.547-1.259,2.281-1.929c0.622-0.567,1.191-1.061,1.832-1.345c0.541-0.24,1.236-0.368,2.04-0.371
		c0.37,0,0.715,0.044,0.996,0.127c0.743,0.221,1.355,0.514,1.827,0.887c0.147,0.138,0.45,0.423,0.9,0.423
		c0.439,0,0.816-0.27,0.988-0.706c0.222-0.578,0.324-1.273,0.313-2.128c-0.003-0.153-0.022-0.305-0.043-0.455
		c-0.01-0.063-0.021-0.127-0.025-0.199c-0.025-0.365-0.102-0.73-0.225-1.089c-0.712-2.072-2.656-3.47-4.84-3.475
		c-0.481,0-0.99,0.06-1.512,0.174c-0.15,0.032-0.3,0.068-0.453,0.108c0.073-0.375,0.115-0.733,0.129-1.08
		c0.03-0.816-0.018-3.592-1.952-5.03c-1.128-0.836-2.49-1.338-3.932-1.453c-0.174-0.016-0.367-0.053-0.562-0.03
		c-0.172,0.005-0.337,0.023-0.493,0.061c-0.418,0.099-0.633,0.341-0.738,0.526c-0.148,0.259-0.181,0.564-0.088,0.869
		c0.112,0.364,0.342,0.604,0.549,0.788c0.209,0.188,0.307,0.577,0.41,0.99l0.227,0.844c0.118,0.422,0.167,0.879,0.22,1.365
		l0.042,0.375c0.039,0.342,0.056,0.644,0.051,0.924c-0.016,1.32-1.047,1.864-1.906,2.088c-0.708,0.186-1.547,0.273-2.378,0.246
		c-0.13-0.003-0.259-0.016-0.436-0.03c-0.214-0.02-0.431-0.045-0.642-0.072l-0.244-0.03c-0.183-0.023-0.37-0.046-0.562-0.078
		c-0.124-0.019-0.252-0.036-0.378-0.053l-0.239-0.033c-0.071-0.01-0.142-0.022-0.212-0.033l-0.161-0.027
		c0.005-0.243,0.012-0.486,0.016-0.728c0.002-0.148,0.002-0.295,0.002-0.44c0-7.771-1.124-13.698-3.343-17.615
		C51.646,20.422,41.918,15.5,29.813,15.5c-8.13,0-19.12,1.864-25.303,10.742c-4.122,5.916-4.735,15.307-4.735,20.377
		c0,0.536,0.018,1.072,0.038,1.61c0.024,0.545,0.059,1.046,0.105,1.525c0.044,0.48,0.104,0.961,0.175,1.425
		c0.07,0.459,0.155,0.909,0.25,1.34C0.426,52.885,0.521,53.247,0.619,53.613 M78.384,52.051c-0.491-0.274-1.048-0.504-1.668-0.688
		c-0.453-0.134-0.964-0.203-1.551-0.203l0,0c-1.026,0.004-1.978,0.187-2.749,0.53c-0.891,0.394-1.608,1.013-2.35,1.688
		c-0.702,0.642-1.364,1.248-2.092,1.772c-0.235,0.171-0.475,0.337-0.714,0.506c-0.296,0.207-0.592,0.413-0.884,0.625
		c-0.466,0.338-0.922,0.695-1.38,1.055c-0.408,0.32-0.818,0.641-1.236,0.947c-0.689,0.504-1.34,0.98-2.126,1.319
		c-0.734,0.315-1.483,0.61-2.23,0.877c-0.709,0.252-1.396,0.472-2.045,0.65c-0.883,0.249-1.822,0.455-2.866,0.635
		c-0.505,0.005-1.014,0.005-1.526,0.004c-0.253-0.002-0.509-0.005-0.764-0.007c-0.383-0.005-0.768-0.01-1.155-0.019
		c-0.228-0.005-0.459-0.012-0.69-0.018c-0.416-0.012-0.834-0.024-1.25-0.04c-0.208-0.008-0.415-0.017-0.621-0.025
		c-0.449-0.02-0.899-0.04-1.348-0.064c-0.18-0.01-0.362-0.019-0.544-0.03c-0.48-0.027-0.962-0.058-1.445-0.089
		c-0.152-0.012-0.308-0.021-0.461-0.032c-0.514-0.036-1.028-0.075-1.544-0.116c-0.126-0.01-0.25-0.02-0.376-0.03
		c-0.549-0.045-1.098-0.095-1.647-0.146c-0.092-0.008-0.185-0.016-0.277-0.025c-0.587-0.054-1.174-0.113-1.761-0.176
		c-0.056-0.005-0.111-0.009-0.169-0.016c-0.625-0.067-1.252-0.136-1.875-0.207c-0.018-0.004-0.035-0.005-0.053-0.007
		c-9.831-1.139-19.335-2.995-26.168-4.511c-0.025-0.005-0.049-0.011-0.072-0.016c-0.423-0.093-0.831-0.186-1.231-0.276
		c-0.053-0.011-0.104-0.023-0.158-0.035c-0.367-0.083-0.724-0.164-1.072-0.244c-0.072-0.018-0.144-0.033-0.212-0.051
		c-0.322-0.073-0.636-0.146-0.941-0.219c-0.085-0.021-0.169-0.039-0.252-0.059c-0.277-0.067-0.548-0.131-0.812-0.193
		c-0.102-0.023-0.2-0.048-0.297-0.071c-0.239-0.058-0.469-0.113-0.692-0.168c-0.1-0.023-0.199-0.048-0.296-0.071
		c-0.209-0.051-0.41-0.101-0.604-0.148c-0.102-0.025-0.203-0.051-0.302-0.075c-0.177-0.043-0.346-0.086-0.509-0.128
		c-0.097-0.023-0.191-0.048-0.282-0.069c-0.062-0.017-0.12-0.03-0.18-0.047c-0.065-0.132-0.127-0.267-0.191-0.403
		c-0.049-0.105-0.097-0.209-0.142-0.307c-0.084-0.194-0.144-0.353-0.18-0.494c-0.091-0.338-0.18-0.675-0.255-1.016
		C2.048,51.729,1.971,51.32,1.907,50.9c-0.065-0.429-0.121-0.872-0.163-1.32c-0.046-0.476-0.08-0.952-0.099-1.426
		c-0.02-0.511-0.039-1.023-0.039-1.535c0-4.855,0.574-13.822,4.407-19.329c5.731-8.229,16.105-9.956,23.798-9.956
		c11.425,0,20.572,4.583,25.097,12.572c2.061,3.64,3.105,9.263,3.105,16.713c0,0.136,0,0.271-0.002,0.41
		c-0.003,0.244-0.01,0.484-0.016,0.715l-0.008,0.133c-0.012,0.17-0.025,0.383,0.003,0.622c0.053,0.612,0.44,0.859,0.658,0.95
		c0.184,0.076,0.35,0.091,0.479,0.105l0.203,0.021c0.065,0.005,0.131,0.011,0.231,0.027l0.114,0.019
		c0.095,0.017,0.187,0.032,0.273,0.043l0.248,0.035c0.113,0.015,0.229,0.03,0.332,0.047c0.208,0.033,0.418,0.061,0.627,0.086
		l0.234,0.028c0.236,0.03,0.474,0.06,0.763,0.085c0.164,0.014,0.33,0.028,0.491,0.033c0.992,0.028,2.021-0.076,2.896-0.305
		c2.029-0.526,3.257-1.962,3.279-3.836c0.007-0.36-0.014-0.74-0.063-1.165l-0.042-0.356c-0.056-0.54-0.116-1.097-0.273-1.657
		l-0.214-0.798c-0.064-0.257-0.136-0.541-0.244-0.826c0.814,0.171,1.574,0.507,2.222,0.99c0.968,0.716,1.262,2.271,1.214,3.487
		c-0.018,0.481-0.113,1.008-0.294,1.615c-0.013,0.042-0.028,0.083-0.046,0.125l-0.053,0.169c-0.32,0.501-0.185,0.97,0.053,1.244
		l0.314,0.33h0.418c0.27,0,0.494-0.11,0.592-0.159l0.065-0.025c0.102-0.04,0.205-0.082,0.313-0.12
		c0.402-0.145,0.798-0.262,1.188-0.346c0.394-0.086,0.771-0.131,1.118-0.131c1.607,0.005,2.736,1.161,3.105,2.232
		c0.07,0.211,0.116,0.423,0.131,0.622c0.008,0.113,0.022,0.226,0.038,0.337c0.01,0.075,0.023,0.148,0.025,0.219
		C78.393,51.774,78.391,51.917,78.384,52.051z"/>
	<path fill="#6D5CE8" d="M41.799,44.621c-1.294,0-2.35,1.054-2.35,2.348c0,1.295,1.056,2.348,2.35,2.348
		c1.295,0,2.348-1.053,2.348-2.348C44.146,45.675,43.094,44.621,41.799,44.621z M41.309,47.274c-0.575,0-1.04-0.467-1.04-1.041
		c0-0.573,0.465-1.04,1.04-1.04c0.574,0,1.042,0.467,1.042,1.04C42.351,46.808,41.883,47.274,41.309,47.274z"/>
</g>
</svg>
