<?xml version="1.0" encoding="utf-8"?>
<!-- Generator: Adobe Illustrator 16.0.0, SVG Export Plug-In . SVG Version: 6.00 Build 0)  -->
<!DOCTYPE svg PUBLIC "-//W3C//DTD SVG 1.1//EN" "http://www.w3.org/Graphics/SVG/1.1/DTD/svg11.dtd">
<svg version="1.1" id="Layer_1" xmlns="http://www.w3.org/2000/svg" xmlns:xlink="http://www.w3.org/1999/xlink" x="0px" y="0px"
	 width="80px" height="80px" viewBox="0 0 80 80" enable-background="new 0 0 80 80" xml:space="preserve">
<g>
	<g>
		<path fill="#D1D3D4" d="M695.559,45.918l0.414,1.021c0.064,0.135,0.129,0.271,0.197,0.414l0.088,0.174
			c0.057,0.119,0.115,0.238,0.176,0.355c0.09,0.176,0.184,0.352,0.277,0.527c0.096,0.176,0.197,0.352,0.297,0.52
			c0.102,0.17,0.205,0.34,0.314,0.506c0.107,0.166,0.219,0.328,0.332,0.484c0.115,0.158,0.234,0.314,0.361,0.469
			c0.123,0.15,0.248,0.295,0.379,0.436c0.133,0.146,0.271,0.285,0.408,0.414c0.141,0.135,0.285,0.264,0.438,0.391
			c0.145,0.119,0.297,0.236,0.453,0.352c0.16,0.115,0.318,0.223,0.48,0.322c0.162,0.102,0.33,0.201,0.502,0.295
			c0.17,0.094,0.344,0.18,0.521,0.264c0.178,0.082,0.355,0.16,0.545,0.236c0.182,0.074,0.363,0.143,0.553,0.209
			c0.188,0.064,0.375,0.125,0.568,0.184s0.387,0.111,0.586,0.164c0.197,0.051,0.396,0.1,0.6,0.145
			c0.203,0.043,0.406,0.086,0.605,0.123c0.207,0.041,0.416,0.078,0.623,0.113c0.209,0.033,0.422,0.064,0.635,0.096
			c0.215,0.029,0.43,0.059,0.643,0.084c0.219,0.027,0.439,0.053,0.654,0.074c0.223,0.025,0.443,0.045,0.668,0.066
			c0.225,0.02,0.449,0.039,0.676,0.055c0.215,0.018,0.428,0.031,0.641,0.047l0.049,0.002c0.232,0.016,0.465,0.029,0.693,0.041
			c0.236,0.014,0.473,0.025,0.711,0.035s0.479,0.021,0.713,0.029c0.244,0.01,0.486,0.016,0.729,0.021
			c0.186,0.006,0.371,0.012,0.555,0.016l15.793,0.008l0.379-0.012c2.824-0.08,5.744-0.164,8.625-0.521
			c0.439-0.055,0.877-0.121,1.313-0.197h0.002c0.908-0.152,1.725-0.334,2.496-0.547c0.549-0.154,1.131-0.34,1.73-0.553
			c0.625-0.223,1.254-0.471,1.867-0.734c0.781-0.336,1.393-0.783,1.984-1.217c0.348-0.254,0.686-0.52,1.025-0.785
			c0.35-0.273,0.699-0.549,1.059-0.809c0.227-0.166,0.455-0.324,0.686-0.486c0.195-0.137,0.391-0.273,0.586-0.414
			c0.65-0.469,1.234-1.004,1.822-1.541c0.496-0.453,0.949-0.846,1.461-1.072c0.432-0.193,0.986-0.295,1.629-0.295
			c0.295,0,0.57,0.033,0.795,0.102c0.594,0.174,1.082,0.408,1.459,0.707c0.117,0.107,0.359,0.338,0.719,0.338
			c0.352,0,0.652-0.217,0.789-0.564c0.176-0.461,0.258-1.016,0.25-1.699c-0.002-0.123-0.018-0.242-0.035-0.361
			c-0.008-0.053-0.016-0.104-0.02-0.162c-0.021-0.289-0.082-0.582-0.18-0.867c-0.568-1.656-2.121-2.77-3.863-2.774
			c-0.385,0-0.791,0.047-1.209,0.137c-0.119,0.027-0.238,0.057-0.357,0.088c0.055-0.299,0.088-0.584,0.1-0.861
			c0.025-0.652-0.014-2.869-1.559-4.018c-0.9-0.666-1.986-1.068-3.139-1.16c-0.139-0.014-0.293-0.043-0.449-0.021
			c-0.137,0-0.268,0.016-0.393,0.047c-0.334,0.078-0.506,0.273-0.59,0.42c-0.119,0.205-0.143,0.451-0.07,0.693
			c0.09,0.291,0.273,0.482,0.439,0.629c0.166,0.15,0.244,0.461,0.326,0.791l0.182,0.674c0.094,0.336,0.133,0.701,0.176,1.09
			l0.031,0.299c0.033,0.273,0.047,0.514,0.043,0.738c-0.014,1.055-0.836,1.489-1.523,1.667c-0.564,0.148-1.234,0.219-1.898,0.197
			c-0.102-0.002-0.205-0.012-0.348-0.025c-0.17-0.016-0.342-0.035-0.51-0.057l-0.195-0.025c-0.146-0.018-0.295-0.035-0.447-0.061
			c-0.102-0.016-0.203-0.029-0.303-0.043l-0.191-0.025c-0.057-0.008-0.113-0.018-0.17-0.029l-0.129-0.02
			c0.006-0.195,0.01-0.389,0.014-0.583c0.002-0.119,0.002-0.234,0.002-0.352c0-6.203-0.898-10.936-2.672-14.064
			c-3.877-6.85-11.645-10.777-21.307-10.777c-6.49,0-15.264,1.488-20.201,8.574c-3.289,4.725-3.779,12.219-3.779,16.268
			c0,0.428,0.014,0.856,0.029,1.288c0.02,0.434,0.047,0.834,0.084,1.217c0.037,0.385,0.084,0.768,0.141,1.137
			c0.057,0.365,0.123,0.727,0.201,1.07C695.406,45.338,695.482,45.627,695.559,45.918 M757.641,44.67
			c-0.391-0.219-0.836-0.4-1.332-0.549c-0.361-0.107-0.768-0.162-1.236-0.162l0,0c-0.82,0.004-1.58,0.148-2.195,0.424
			c-0.711,0.314-1.283,0.809-1.877,1.348c-0.561,0.514-1.088,0.996-1.668,1.414c-0.189,0.137-0.381,0.271-0.572,0.404
			c-0.234,0.166-0.471,0.33-0.703,0.5c-0.373,0.27-0.738,0.557-1.104,0.842c-0.326,0.256-0.652,0.512-0.986,0.754
			c-0.551,0.406-1.068,0.785-1.699,1.055c-0.584,0.252-1.184,0.488-1.779,0.701c-0.564,0.201-1.113,0.377-1.631,0.52
			c-0.707,0.197-1.457,0.363-2.289,0.506c-0.402,0.006-0.809,0.006-1.219,0.002c-0.203,0-0.406-0.002-0.609-0.004
			c-0.307-0.004-0.613-0.008-0.92-0.014c-0.186-0.006-0.369-0.01-0.553-0.016c-0.334-0.008-0.666-0.02-1-0.031
			c-0.164-0.008-0.33-0.014-0.494-0.02c-0.357-0.018-0.717-0.033-1.076-0.051c-0.145-0.008-0.289-0.016-0.434-0.025
			c-0.385-0.021-0.77-0.045-1.154-0.07c-0.123-0.01-0.246-0.018-0.367-0.027c-0.412-0.027-0.822-0.059-1.232-0.092
			c-0.102-0.008-0.201-0.016-0.301-0.025c-0.439-0.035-0.877-0.074-1.316-0.115c-0.072-0.006-0.146-0.012-0.219-0.02
			c-0.469-0.045-0.938-0.092-1.406-0.141c-0.045-0.004-0.09-0.008-0.135-0.014c-0.5-0.053-1-0.107-1.498-0.166
			c-0.016,0-0.029-0.002-0.029-0.002c-7.861-0.912-15.447-2.395-20.906-3.602c-0.018-0.006-0.037-0.01-0.055-0.014
			c-0.336-0.074-0.664-0.148-0.982-0.219c-0.043-0.01-0.084-0.021-0.127-0.031c-0.293-0.064-0.578-0.131-0.855-0.195
			c-0.057-0.014-0.113-0.025-0.17-0.039c-0.258-0.059-0.508-0.117-0.75-0.174c-0.068-0.016-0.135-0.031-0.201-0.047
			c-0.223-0.053-0.439-0.105-0.648-0.154c-0.08-0.021-0.16-0.039-0.238-0.057c-0.189-0.047-0.373-0.092-0.553-0.135
			c-0.078-0.02-0.158-0.039-0.236-0.059c-0.166-0.039-0.326-0.078-0.482-0.117c-0.082-0.02-0.162-0.039-0.24-0.061
			c-0.141-0.033-0.275-0.068-0.406-0.102c-0.076-0.018-0.152-0.037-0.225-0.057c-0.051-0.012-0.096-0.023-0.145-0.037
			c-0.051-0.104-0.102-0.213-0.152-0.322c-0.041-0.082-0.08-0.166-0.113-0.244c-0.068-0.154-0.115-0.279-0.145-0.395
			c-0.072-0.268-0.145-0.539-0.205-0.811c-0.068-0.313-0.131-0.639-0.182-0.973c-0.053-0.344-0.096-0.697-0.129-1.055
			c-0.037-0.381-0.063-0.762-0.078-1.141c-0.018-0.406-0.029-0.817-0.029-1.225c0-3.877,0.455-11.035,3.518-15.43
			c4.574-6.57,12.855-7.947,18.998-7.947c9.119,0,16.422,3.656,20.033,10.035c1.646,2.906,2.48,7.395,2.48,13.342
			c0,0.107,0,0.217-0.002,0.328c-0.002,0.193-0.008,0.387-0.012,0.571l-0.006,0.107c-0.01,0.135-0.021,0.305,0,0.494
			c0.043,0.49,0.352,0.686,0.527,0.76c0.145,0.061,0.277,0.074,0.381,0.082l0.162,0.018c0.053,0.006,0.104,0.01,0.186,0.021
			l0.092,0.016c0.074,0.014,0.15,0.025,0.219,0.035l0.197,0.027c0.092,0.012,0.182,0.023,0.266,0.037
			c0.164,0.027,0.332,0.049,0.5,0.07l0.188,0.021c0.188,0.025,0.377,0.047,0.607,0.066c0.133,0.012,0.264,0.023,0.395,0.027
			c0.789,0.023,1.611-0.061,2.311-0.242c1.619-0.422,2.598-1.566,2.619-3.063c0.004-0.287-0.012-0.592-0.053-0.93l-0.031-0.285
			c-0.047-0.43-0.094-0.875-0.221-1.324l-0.172-0.637c-0.051-0.203-0.105-0.43-0.193-0.656c0.65,0.135,1.256,0.402,1.775,0.789
			c0.77,0.57,1.006,1.813,0.969,2.783c-0.016,0.385-0.092,0.805-0.236,1.289c-0.01,0.035-0.021,0.066-0.033,0.1l-0.045,0.135
			c-0.256,0.401-0.146,0.776,0.041,0.995l0.252,0.264h0.334c0.215,0,0.395-0.088,0.473-0.127l0.051-0.021
			c0.082-0.033,0.164-0.064,0.252-0.096c0.32-0.115,0.639-0.209,0.947-0.275c0.314-0.068,0.615-0.105,0.893-0.105
			c1.283,0.004,2.186,0.928,2.479,1.783c0.059,0.168,0.094,0.338,0.105,0.496c0.006,0.092,0.018,0.18,0.031,0.27
			c0.008,0.059,0.018,0.117,0.02,0.176C757.648,44.449,757.646,44.563,757.641,44.67z"/>
		<path fill="#D1D3D4" d="M728.434,38.738c-1.033,0-1.873,0.842-1.873,1.875c0,1.034,0.84,1.875,1.873,1.875
			c1.035,0,1.875-0.842,1.875-1.875C730.309,39.58,729.469,38.738,728.434,38.738z M728.043,40.857c-0.457,0-0.83-0.373-0.83-0.83
			c0-0.459,0.373-0.83,0.83-0.83c0.459,0,0.832,0.371,0.832,0.83C728.875,40.484,728.502,40.857,728.043,40.857z"/>
	</g>
	<path fill="#D1D3D4" d="M727-4.95c-22.057,0-40,17.944-40,40c0,22.055,17.943,40,40,40s40-17.945,40-40
		C767,12.995,749.057-4.95,727-4.95z M727,72.32c-20.551,0-37.27-16.719-37.27-37.27c0-20.55,16.719-37.268,37.27-37.268
		c20.549,0,37.268,16.718,37.268,37.268C764.268,55.602,747.549,72.32,727,72.32z"/>
</g>
<g>
	<path fill="#231916" d="M0.956,53.498l0.513,1.268c0.081,0.168,0.16,0.338,0.243,0.512l0.109,0.219
		c0.073,0.148,0.146,0.295,0.218,0.439c0.114,0.219,0.228,0.438,0.346,0.658c0.119,0.215,0.244,0.434,0.369,0.645
		c0.125,0.213,0.254,0.422,0.391,0.627c0.133,0.205,0.27,0.408,0.413,0.602c0.142,0.199,0.291,0.391,0.447,0.582
		c0.154,0.186,0.31,0.365,0.472,0.543c0.164,0.178,0.335,0.352,0.507,0.512c0.174,0.168,0.353,0.326,0.542,0.484
		c0.18,0.148,0.369,0.295,0.563,0.438c0.198,0.143,0.396,0.277,0.595,0.4c0.204,0.127,0.411,0.248,0.626,0.367
		c0.21,0.113,0.425,0.223,0.648,0.326c0.22,0.104,0.439,0.199,0.675,0.295c0.225,0.092,0.451,0.176,0.685,0.258
		c0.234,0.082,0.468,0.156,0.708,0.229c0.239,0.072,0.479,0.139,0.728,0.205c0.245,0.064,0.492,0.121,0.743,0.178
		c0.251,0.053,0.504,0.107,0.753,0.154c0.256,0.051,0.516,0.096,0.773,0.137c0.261,0.045,0.525,0.082,0.79,0.119
		c0.267,0.039,0.533,0.076,0.798,0.107c0.271,0.035,0.542,0.064,0.812,0.092c0.275,0.029,0.55,0.059,0.83,0.084
		c0.28,0.023,0.558,0.047,0.84,0.068c0.264,0.02,0.531,0.039,0.795,0.057l0.06,0.004c0.288,0.02,0.577,0.035,0.86,0.051
		c0.295,0.016,0.588,0.031,0.882,0.041c0.297,0.012,0.596,0.027,0.887,0.037c0.3,0.01,0.604,0.02,0.903,0.029
		c0.231,0.006,0.46,0.012,0.691,0.016l19.611,0.01l0.473-0.014c3.506-0.098,7.134-0.201,10.711-0.648
		c0.545-0.066,1.088-0.15,1.629-0.242h0.005c1.126-0.189,2.141-0.414,3.098-0.684c0.683-0.189,1.405-0.418,2.149-0.684
		c0.777-0.277,1.558-0.584,2.319-0.914c0.97-0.414,1.73-0.971,2.466-1.508c0.428-0.316,0.851-0.646,1.271-0.979
		c0.435-0.338,0.869-0.68,1.315-1.002c0.279-0.205,0.566-0.404,0.851-0.604c0.242-0.172,0.484-0.338,0.728-0.514
		c0.808-0.584,1.534-1.248,2.263-1.912c0.617-0.563,1.179-1.053,1.814-1.336c0.537-0.236,1.227-0.363,2.023-0.365
		c0.367,0,0.709,0.043,0.987,0.125c0.736,0.219,1.343,0.51,1.813,0.879c0.144,0.137,0.446,0.418,0.892,0.418
		c0.436,0,0.811-0.266,0.978-0.699c0.222-0.572,0.323-1.262,0.312-2.109c-0.003-0.15-0.021-0.301-0.044-0.451
		c-0.008-0.064-0.02-0.123-0.023-0.197c-0.025-0.363-0.102-0.725-0.224-1.08c-0.705-2.053-2.633-3.439-4.798-3.445
		c-0.478,0-0.981,0.061-1.499,0.174c-0.148,0.031-0.297,0.066-0.446,0.107c0.07-0.373,0.111-0.727,0.124-1.072
		c0.031-0.809-0.016-3.561-1.936-4.984c-1.117-0.832-2.467-1.329-3.896-1.442c-0.175-0.016-0.365-0.054-0.56-0.028
		c-0.169,0-0.332,0.022-0.487,0.057c-0.414,0.098-0.628,0.339-0.733,0.525c-0.146,0.253-0.177,0.56-0.087,0.86
		c0.112,0.36,0.34,0.598,0.545,0.78c0.208,0.184,0.304,0.573,0.407,0.984l0.225,0.836c0.116,0.416,0.166,0.873,0.216,1.35
		l0.043,0.373c0.04,0.338,0.057,0.637,0.053,0.918c-0.02,1.309-1.039,1.85-1.892,2.068c-0.704,0.184-1.535,0.271-2.359,0.246
		c-0.127-0.006-0.256-0.016-0.431-0.035c-0.212-0.018-0.427-0.041-0.636-0.068l-0.241-0.029c-0.183-0.021-0.367-0.047-0.557-0.076
		c-0.124-0.021-0.25-0.037-0.375-0.053l-0.237-0.035c-0.071-0.01-0.143-0.02-0.21-0.035l-0.16-0.025
		c0.005-0.24,0.011-0.48,0.015-0.721c0.003-0.146,0.003-0.291,0.003-0.436c0-7.706-1.115-13.579-3.314-17.466
		C51.547,20.588,41.9,15.711,29.9,15.711c-8.06,0-18.956,1.847-25.085,10.649C0.73,32.228,0.12,41.535,0.12,46.563
		c0,0.531,0.018,1.063,0.038,1.596c0.022,0.541,0.057,1.037,0.103,1.512c0.046,0.479,0.104,0.955,0.176,1.414
		c0.069,0.455,0.153,0.902,0.247,1.328C0.765,52.775,0.858,53.133,0.956,53.498 M78.055,51.947c-0.486-0.271-1.038-0.5-1.653-0.684
		c-0.451-0.133-0.955-0.199-1.536-0.199h-0.001c-1.019,0.004-1.961,0.184-2.725,0.525c-0.885,0.389-1.595,1.004-2.331,1.676
		c-0.696,0.637-1.353,1.234-2.072,1.756c-0.237,0.168-0.474,0.336-0.71,0.5c-0.292,0.205-0.585,0.412-0.874,0.619
		c-0.464,0.336-0.917,0.693-1.371,1.047c-0.403,0.32-0.81,0.637-1.225,0.939c-0.683,0.5-1.328,0.973-2.109,1.307
		c-0.728,0.313-1.471,0.607-2.211,0.869c-0.702,0.25-1.382,0.469-2.025,0.648c-0.878,0.244-1.808,0.449-2.842,0.627
		c-0.5,0.006-1.007,0.006-1.514,0.004c-0.253,0-0.504-0.004-0.757-0.008c-0.38-0.002-0.761-0.008-1.144-0.016
		c-0.228-0.006-0.457-0.012-0.687-0.018c-0.412-0.01-0.825-0.025-1.241-0.039c-0.204-0.01-0.409-0.018-0.613-0.025
		c-0.446-0.021-0.891-0.041-1.337-0.066c-0.18-0.01-0.358-0.018-0.539-0.027c-0.478-0.029-0.955-0.057-1.433-0.09
		c-0.153-0.01-0.305-0.021-0.458-0.031c-0.508-0.035-1.021-0.076-1.529-0.113c-0.125-0.014-0.249-0.021-0.374-0.031
		c-0.544-0.045-1.089-0.092-1.633-0.146c-0.092-0.006-0.184-0.016-0.274-0.021c-0.583-0.057-1.165-0.113-1.746-0.174
		c-0.056-0.006-0.112-0.014-0.166-0.02c-0.622-0.066-1.243-0.133-1.861-0.205c-0.018,0-0.037-0.004-0.054-0.006
		c-9.745-1.131-19.168-2.971-25.946-4.471c-0.024-0.006-0.046-0.012-0.068-0.016c-0.417-0.092-0.826-0.186-1.221-0.275
		c-0.054-0.012-0.104-0.021-0.156-0.033c-0.364-0.082-0.72-0.166-1.063-0.244c-0.071-0.016-0.141-0.031-0.212-0.047
		c-0.318-0.076-0.631-0.148-0.933-0.219c-0.083-0.02-0.166-0.041-0.248-0.061c-0.275-0.063-0.545-0.129-0.805-0.189
		c-0.1-0.025-0.198-0.047-0.296-0.07c-0.236-0.057-0.463-0.113-0.685-0.166c-0.1-0.025-0.198-0.049-0.296-0.074
		c-0.206-0.051-0.405-0.098-0.6-0.145c-0.1-0.025-0.199-0.051-0.297-0.076c-0.176-0.041-0.343-0.086-0.505-0.123
		c-0.095-0.025-0.189-0.047-0.28-0.07c-0.062-0.02-0.119-0.031-0.18-0.047c-0.062-0.133-0.125-0.266-0.19-0.402
		c-0.047-0.104-0.096-0.205-0.141-0.303c-0.084-0.193-0.141-0.348-0.179-0.488c-0.088-0.334-0.177-0.67-0.253-1.008
		c-0.087-0.389-0.161-0.795-0.225-1.209c-0.066-0.426-0.122-0.865-0.163-1.309c-0.046-0.475-0.076-0.945-0.097-1.414
		c-0.021-0.51-0.037-1.018-0.037-1.523c0-4.814,0.568-13.706,4.368-19.161c5.682-8.16,15.967-9.871,23.594-9.871
		c11.327,0,20.396,4.542,24.882,12.464c2.043,3.609,3.079,9.182,3.079,16.568c0,0.135,0,0.271-0.002,0.406
		c-0.003,0.24-0.01,0.482-0.016,0.709l-0.008,0.131c-0.01,0.17-0.024,0.379,0.003,0.615c0.054,0.607,0.435,0.855,0.653,0.943
		c0.182,0.076,0.345,0.092,0.473,0.104l0.204,0.023c0.062,0.006,0.126,0.008,0.228,0.025l0.114,0.018
		c0.093,0.016,0.187,0.031,0.271,0.045l0.245,0.035c0.114,0.016,0.225,0.027,0.329,0.043c0.205,0.035,0.414,0.061,0.621,0.086
		l0.232,0.029c0.234,0.031,0.47,0.057,0.756,0.084c0.163,0.014,0.328,0.029,0.489,0.033c0.98,0.031,2.002-0.076,2.87-0.301
		c2.012-0.521,3.228-1.945,3.251-3.803c0.007-0.359-0.014-0.736-0.063-1.156l-0.039-0.355c-0.059-0.533-0.117-1.084-0.272-1.641
		l-0.213-0.791c-0.065-0.256-0.133-0.538-0.242-0.819c0.809,0.171,1.561,0.503,2.204,0.98c0.957,0.712,1.25,2.253,1.202,3.458
		c-0.018,0.477-0.113,0.998-0.292,1.604c-0.012,0.041-0.027,0.082-0.043,0.123l-0.054,0.168c-0.318,0.496-0.184,0.961,0.052,1.232
		l0.313,0.33h0.412c0.268,0,0.489-0.111,0.589-0.162l0.063-0.025c0.101-0.037,0.202-0.08,0.312-0.117
		c0.398-0.145,0.792-0.26,1.176-0.342c0.391-0.088,0.765-0.133,1.109-0.133c1.595,0.006,2.715,1.154,3.078,2.217
		c0.071,0.207,0.116,0.418,0.13,0.613c0.008,0.115,0.022,0.225,0.038,0.336c0.011,0.072,0.023,0.146,0.025,0.219
		C78.064,51.672,78.062,51.814,78.055,51.947z"/>
	<path fill="#231916" d="M41.783,44.582c-1.283,0-2.329,1.043-2.329,2.328c0,1.283,1.045,2.326,2.329,2.326
		c1.284,0,2.328-1.043,2.328-2.326C44.111,45.625,43.067,44.582,41.783,44.582z M41.298,47.213c-0.57,0-1.033-0.465-1.033-1.033
		c0-0.566,0.463-1.029,1.033-1.029c0.569,0,1.031,0.463,1.031,1.029C42.329,46.748,41.867,47.213,41.298,47.213z"/>
</g>
</svg>
